<svg xmlns="http://www.w3.org/2000/svg" data-name="Layer 1" viewBox="0 0 64 64"><path d="M42.38 43.29a.72.72 0 0 1-.08 1 16 16 0 0 1-20.52 0 .72.72 0 0 1-.08-1 6.73 6.73 0 0 1 2.53-1.93L27 40.11c1.74-.76 1-3.49.12-4.6a6.63 6.63 0 0 1-1.39-3.71c0-.19-.33-.23-.47-.28a1.72 1.72 0 0 1-.85-.93 1.73 1.73 0 0 1-.16-1.4 1.32 1.32 0 0 1 .29-.44 1.39 1.39 0 0 1 .36-.24.06.06 0 0 0 0-.07c-.43-1.65-1-5.45 2.15-7.16 0 0-1.05-.74.2-1.28s8.06-2.84 10.9 2.3c.91 1.65 1.67 3.82.74 5.63l-.06.1a1.91 1.91 0 0 0-.2.5c.41 0 .75 0 .89.48a2.84 2.84 0 0 1 0 1.06 1.78 1.78 0 0 1-1.36 1.68v.33a6.22 6.22 0 0 1-1.51 3.6c-1 1.15-1.5 3.55.14 4.38l3 1.31a6.73 6.73 0 0 1 2.59 1.92Z"/><path d="M32 10.29A21.7 21.7 0 1 0 53.71 32 21.74 21.74 0 0 0 32 10.29Zm11.72 35.79A18.32 18.32 0 1 1 50.33 32a18.24 18.24 0 0 1-6.61 14.08Z"/><path d="M32 10.29A21.7 21.7 0 1 0 53.71 32 21.74 21.74 0 0 0 32 10.29Zm11.72 35.79A18.32 18.32 0 1 1 50.33 32a18.24 18.24 0 0 1-6.61 14.08Z"/></svg>