<svg xmlns="http://www.w3.org/2000/svg" fill-rule="evenodd" clip-rule="evenodd" image-rendering="optimizeQuality" shape-rendering="geometricPrecision" text-rendering="geometricPrecision" viewBox="0 0 5023 5023"><path fill="#373435" d="M1978 2373l-2 0c-25,-8 -45,-16 -61,-29 -16,-13 -26,-30 -38,-63 -12,-33 -25,-83 -35,-127 -9,-45 -15,-84 -18,-118 -2,-34 -2,-64 7,-86 8,-23 29,-42 44,-46 16,-5 24,-2 30,-4 7,-1 -3,-5 -3,-9l-19 -256c-12,-118 14,-289 100,-370 20,-19 90,-31 102,-21 -12,-23 -18,-57 8,-93 27,-36 86,-107 146,-134 92,-41 196,-72 296,-62 114,11 225,59 321,121 78,50 144,123 186,205 45,87 58,182 68,286 9,104 1,228 -14,332 11,1 22,3 32,7 22,8 41,23 51,50 9,27 8,66 4,106 -3,39 -9,79 -19,118 -9,40 -22,80 -34,108 -12,28 -22,45 -38,58 -16,12 -36,21 -61,29 -5,1 -10,2 -15,4l-7 120c-5,71 -30,131 -78,182l0 209c0,42 -18,77 -51,103l-309 238 112 66c22,13 10,42 0,66l-45 104c-11,25 -25,46 -14,71l11 25 70 258 21 620c-70,7 -142,11 -214,11 -73,0 -145,-4 -215,-11l21 -620 70 -258 7 -15c11,-25 -2,-47 -14,-72l-55 -113c-11,-23 -21,-53 0,-66l0 0 120 -71 -304 -233c-33,-25 -50,-61 -50,-103l0 -180 -23 -24c-51,-53 -78,-114 -83,-188l-8 -125 0 0 0 0zm534 -2373c693,0 1321,281 1776,736 454,454 735,1082 735,1776 0,693 -281,1321 -735,1776 -455,454 -1083,735 -1776,735 -694,0 -1322,-281 -1776,-735 -455,-455 -736,-1083 -736,-1776 0,-694 281,-1322 736,-1776 454,-455 1082,-736 1776,-736zm1555 956c-398,-398 -948,-644 -1555,-644 -608,0 -1158,246 -1556,644 -398,398 -644,948 -644,1556 0,607 246,1157 644,1555 398,398 948,644 1556,644 607,0 1157,-246 1555,-644 398,-398 644,-948 644,-1555 0,-608 -246,-1158 -644,-1556zm-1267 3475l164 -764c61,-119 82,-188 86,-317 5,-119 -5,-287 -15,-460 -1,-8 3,-15 10,-18 7,-3 15,-2 20,3 52,46 114,92 231,138 143,57 368,114 513,149 144,36 209,50 255,84 42,31 68,80 105,203 7,22 4,43 -8,63 -82,138 -181,266 -294,379 -283,283 -654,478 -1067,540zm-1946 -983c38,-122 63,-171 105,-202 46,-34 111,-48 255,-83 145,-36 370,-93 513,-150 117,-46 179,-92 231,-138 5,-5 13,-6 20,-3 7,3 11,10 10,18 -10,173 -20,342 -15,460 4,129 25,198 86,317l164 764c-413,-63 -784,-257 -1066,-540 -114,-113 -213,-241 -295,-380 -12,-20 -14,-41 -8,-63z"/></svg>